<?xml version="1.0" standalone="no"?><!DOCTYPE svg PUBLIC "-//W3C//DTD SVG 1.1//EN" "http://www.w3.org/Graphics/SVG/1.1/DTD/svg11.dtd"><svg t="1705987880918" class="icon" viewBox="0 0 1080 1024" version="1.1" xmlns="http://www.w3.org/2000/svg" p-id="5263" xmlns:xlink="http://www.w3.org/1999/xlink" width="210.9375" height="200"><path d="M780.599489 880.826575l77.530941 77.587823-41.296745 41.296745a14.220642 14.220642 0 0 0 10.068215 24.288857h126.734363a14.220642 14.220642 0 0 0 14.220642-14.220642v-126.563715a14.220642 14.220642 0 0 0-24.288857-10.068215l-41.353627 41.353627-77.587824-77.587823a14.106877 14.106877 0 0 0-20.079547 0l-23.890678 23.890679a14.049994 14.049994 0 0 0-0.113766 20.022664z" fill="currentColor" p-id="5264"></path><path d="M698.517942 18.885013l250.45395 250.510832c11.945339 11.945339 18.714365 28.156871 18.714365 45.164759V796.469726h-63.99289V352.046217c0-35.267193-28.725697-63.99289-63.992889-63.99289H695.673814a16.040884 16.040884 0 0 1-15.927119-15.927119V128.099544c0-35.267193-28.725697-63.99289-64.049772-63.992889H207.735141a8.020442 8.020442 0 0 0-7.96356 7.963559v240.04444c0 4.379958 3.583602 7.96356 7.96356 7.96356h391.97778c8.816798 0 15.984002 7.224086 15.984002 15.984001v543.968004a16.040884 16.040884 0 0 1-15.984002 15.984002H199.771581c0 35.267193 28.668815 63.99289 63.99289 63.992889h458.587268V1024H263.764471c-35.267193 0-67.292079-14.277525-90.500167-37.542495a127.587601 127.587601 0 0 1-37.542495-90.443284H55.744917a16.040884 16.040884 0 0 1-15.927119-15.984002V336.062215c0-8.759916 7.167204-15.984002 15.927119-15.984001h72.013332c4.379958 0 7.96356-3.583602 7.96356-7.96356V48.06577c0-26.507277 21.558494-48.008888 48.008888-48.008887h469.451838c17.064771 0 33.21942 6.712143 45.335407 18.771247z m114.675259 205.175425l-69.510499-69.453617v65.471837c0 2.21842 1.820242 3.98178 3.98178 3.98178h65.528719zM103.753805 824.057771c0 4.43684 3.583602 8.020442 7.96356 8.020443H543.797356c4.379958 0 7.96356-3.583602 7.963559-7.96356V392.034663a8.020442 8.020442 0 0 0-7.963559-8.020442H111.774247a8.020442 8.020442 0 0 0-7.963559 7.963559v431.966226z" fill="currentColor" p-id="5265"></path><path d="M278.895234 477.472281l45.562937 86.745917 46.700589-86.745917h70.64815l-71.956449 124.060882 73.890457 124.117765H373.434063l-48.975892-85.778914-48.179535 85.778914h-71.103211l73.719809-124.117765-71.103211-124.060882h71.103211z" fill="currentColor" p-id="5266"></path></svg>