<?xml version="1.0" standalone="no"?><!DOCTYPE svg PUBLIC "-//W3C//DTD SVG 1.1//EN" "http://www.w3.org/Graphics/SVG/1.1/DTD/svg11.dtd"><svg t="1705988044708" class="icon" viewBox="0 0 1064 1024" version="1.1" xmlns="http://www.w3.org/2000/svg" p-id="7300" xmlns:xlink="http://www.w3.org/1999/xlink" width="207.8125" height="200"><path d="M155.648 419.84H909.312l15.40096 369.90976a215.04 215.04 0 0 1-214.8352 224.01024H355.1232a215.04 215.04 0 0 1-214.8352-224.01024L155.648 419.84z m98.26304 102.4l-11.34592 271.81056A112.64 112.64 0 0 0 355.1232 911.36h354.7136a112.64 112.64 0 0 0 112.51712-117.30944l-11.30496-271.81056H253.91104z" fill="currentColor" p-id="7301"></path><path d="M358.4 184.32a174.08 174.08 0 0 1 348.16 0v30.72h133.12a174.08 174.08 0 0 1 174.08 174.08V450.56A71.68 71.68 0 0 1 942.08 522.24H122.88A71.68 71.68 0 0 1 51.2 450.56V389.12A174.08 174.08 0 0 1 225.28 215.04h133.12V184.32zM532.48 112.64a71.68 71.68 0 0 0-71.68 71.68v81.92c0 28.2624-22.9376 51.2-51.2 51.2H225.28A71.68 71.68 0 0 0 153.6 389.12v30.72h757.76V389.12a71.68 71.68 0 0 0-71.68-71.68H655.36c-28.2624 0-51.2-22.9376-51.2-51.2v-81.92A71.68 71.68 0 0 0 532.48 112.64zM442.90048 686.16192a51.2 51.2 0 0 1 48.5376 53.6576l-10.24 204.8a51.2 51.2 0 0 1-102.23616-5.07904l10.24-204.8a51.2 51.2 0 0 1 53.6576-48.57856z" fill="currentColor" p-id="7302"></path></svg>