<?xml version="1.0" standalone="no"?><!DOCTYPE svg PUBLIC "-//W3C//DTD SVG 1.1//EN" "http://www.w3.org/Graphics/SVG/1.1/DTD/svg11.dtd"><svg t="1705988083862" class="icon" viewBox="0 0 1024 1024" version="1.1" xmlns="http://www.w3.org/2000/svg" p-id="8424" xmlns:xlink="http://www.w3.org/1999/xlink" width="200" height="200"><path d="M407.210667 432v288a14.890667 14.890667 0 0 1-4.949334 11.52 17.408 17.408 0 0 1-12.458666 4.266667h-34.986667a17.408 17.408 0 0 1-12.501333-4.266667 14.890667 14.890667 0 0 1-4.949334-11.562667v-288a14.890667 14.890667 0 0 1 4.949334-11.52 17.408 17.408 0 0 1 12.458666-4.266666h34.858667a17.365333 17.365333 0 0 1 12.501333 4.266666 14.890667 14.890667 0 0 1 4.949334 11.562667z m139.648 0v288a14.890667 14.890667 0 0 1-4.992 11.562667 17.408 17.408 0 0 1-12.501334 4.266666h-34.858666a17.408 17.408 0 0 1-12.501334-4.266666 14.890667 14.890667 0 0 1-4.949333-11.562667v-288.042667a14.890667 14.890667 0 0 1 4.949333-11.52 17.408 17.408 0 0 1 12.458667-4.266666h34.858667a17.408 17.408 0 0 1 12.501333 4.266666 14.890667 14.890667 0 0 1 4.949333 11.562667z m139.648 0v288a14.890667 14.890667 0 0 1-4.992 11.562667 17.408 17.408 0 0 1-12.501334 4.266666h-34.858666a17.408 17.408 0 0 1-12.501334-4.266666 14.890667 14.890667 0 0 1-4.949333-11.562667v-288.042667a14.890667 14.890667 0 0 1 4.949333-11.52 17.408 17.408 0 0 1 12.458667-4.266666h34.901333a17.408 17.408 0 0 1 12.501334 4.266666 14.890667 14.890667 0 0 1 4.949333 11.562667z m69.76 361.984V320H267.648v473.984a53.461333 53.461333 0 0 0 11.690667 33.792c2.730667 2.858667 4.650667 4.266667 5.717333 4.266667h453.802667c1.066667 0 2.944-1.365333 5.717333-4.266667a53.461333 53.461333 0 0 0 11.776-33.749333zM389.930667 256h244.352l-26.325334-58.496a15.530667 15.530667 0 0 0-9.258666-5.504H425.770667a15.530667 15.530667 0 0 0-9.258667 5.504z m506.154666 16v32a14.890667 14.890667 0 0 1-4.949333 11.562667 17.408 17.408 0 0 1-12.501333 4.266666h-52.522667v474.154667a107.434667 107.434667 0 0 1-25.6 71.808 78.336 78.336 0 0 1-61.653333 30.208H285.056a79.232 79.232 0 0 1-61.610667-29.226667 103.552 103.552 0 0 1-25.6-70.784V320H145.408a17.365333 17.365333 0 0 1-12.501333-4.266667 14.890667 14.890667 0 0 1-4.949334-11.562666v-32a14.890667 14.890667 0 0 1 4.949334-11.562667 17.365333 17.365333 0 0 1 12.501333-4.266667h168.533333l38.4-83.498666a71.04 71.04 0 0 1 29.056-32.042667A81.962667 81.962667 0 0 1 424.704 128h174.506667a81.962667 81.962667 0 0 1 43.136 12.8 71.296 71.296 0 0 1 29.44 31.488L709.930667 256h168.533333a17.408 17.408 0 0 1 12.501333 4.266667 14.890667 14.890667 0 0 1 4.949334 11.562666z" fill="currentColor" p-id="8425"></path></svg>