<?xml version="1.0" standalone="no"?><!DOCTYPE svg PUBLIC "-//W3C//DTD SVG 1.1//EN" "http://www.w3.org/Graphics/SVG/1.1/DTD/svg11.dtd"><svg t="1705988185240" class="icon" viewBox="0 0 1024 1024" version="1.1" xmlns="http://www.w3.org/2000/svg" p-id="9424" xmlns:xlink="http://www.w3.org/1999/xlink" width="200" height="200"><path d="M746.24 824.064c-170.922667 0.042667-275.712 0-314.368-0.170667a18.176 18.176 0 0 0-15.445333 6.912c-23.978667 27.562667-58.154667 66.56-102.570667 116.992a42.666667 42.666667 0 0 1-71.125333-11.093333 16668.16 16668.16 0 0 1-45.824-105.557333c-2.474667-5.802667-5.461333-7.253333-11.434667-7.253334-14.378667 0.170667-33.536 0.213333-57.472 0.213334a42.666667 42.666667 0 0 1-42.666667-42.666667V329.6a42.666667 42.666667 0 0 1 42.666667-42.666667h618.24a42.666667 42.666667 0 0 1 42.666667 42.666667v451.797333a42.666667 42.666667 0 0 1-42.666667 42.666667z m-35.029333-76.757333V363.818667L170.24 364.074667v383.445333l42.112-0.256c16.469333 0 25.898667 0.682667 28.202667 2.005333 2.261333 1.493333 15.786667 33.706667 40.533333 96.682667a8.533333 8.533333 0 0 0 14.336 2.474667c37.845333-42.965333 65.706667-74.453333 83.541333-94.464 1.962667-2.218667 6.229333-4.394667 12.757334-6.442667l319.445333-0.213333zM341.333333 512h195.968a42.666667 42.666667 0 1 1 0 85.333333H341.333333a42.666667 42.666667 0 0 1 0-85.333333z m554.666667 159.786667h-48.042667a21.333333 21.333333 0 0 1-21.333333-21.333334v-33.578666a21.333333 21.333333 0 0 1 21.333333-21.333334h12.970667V206.250667H355.328v16.469333a21.333333 21.333333 0 0 1-21.333333 21.333333h-34.133334a21.333333 21.333333 0 0 1-21.333333-21.333333V170.837333a42.666667 42.666667 0 0 1 42.666667-42.666666H896a42.666667 42.666667 0 0 1 42.666667 42.666666v458.282667a42.666667 42.666667 0 0 1-42.666667 42.666667z" fill="currentColor" p-id="9425"></path></svg>