<?xml version="1.0" standalone="no"?><!DOCTYPE svg PUBLIC "-//W3C//DTD SVG 1.1//EN" "http://www.w3.org/Graphics/SVG/1.1/DTD/svg11.dtd"><svg t="1705987959860" class="icon" viewBox="0 0 1024 1024" version="1.1" xmlns="http://www.w3.org/2000/svg" p-id="6290" xmlns:xlink="http://www.w3.org/1999/xlink" width="200" height="200"><path d="M398.815602 87.301121c23.70978 0 45.902327 11.788662 59.340679 31.536777l8.838486 19.675866h386.244241c38.38841 0 67.914251 11.800703 68.504286 59.870507l0.012042 1.469067v61.592446h30.404873c39.773186 0 72.008373 32.584391 72.008372 72.766989v550.864051c0 40.19464-32.247228 72.766989-72.008372 72.766989H72.008373c-39.773186 0-72.008373-32.584391-72.008373-72.766989V160.06811c0-40.19464 32.247228-72.766989 72.008373-72.766989h326.807229z m-6.297722 63.242136H81.665683c-13.257729 0-23.998777 10.861464-23.998777 24.251649V873.131622c0 13.402227 10.75309 24.251649 23.998777 24.251649l860.018391 0.048166c13.257729 0 23.998777-10.861464 23.998777-24.251649V348.674655c-0.240831-13.221604-10.921671-23.806112-23.998777-23.806112H531.031644c-23.70978 0-45.902327-11.788662-59.340679-31.536778l-59.400886-132.276249a23.898832 23.898832 0 0 0-19.772199-10.512259z m125.039288 100.426392c4.479451 6.574678 11.872952 10.512259 19.772199 10.512259l329.492491-0.036124v-41.615541c0-7.249003-0.228789-24.444314-22.854831-24.793519H492.402404l25.154764 55.932925z" p-id="6291"></path><path d="M688.78778 657.238961c0-15.088042-12.282365-27.430614-27.286116-27.430614H387.544727c-10.464093 0-19.555451 5.936476-24.56473 15.076-1.830313 4.118205-2.721387 8.236409-2.721386 12.354614 0 5.936476 1.818272 11.439457 5.454815 16.460777l56.980538 78.631216c9.1034 12.342572 25.925422 14.630464 38.207787 5.936476 12.282365-9.151566 14.558214-26.069921 5.912393-38.412493l-25.154764-35.185362h219.842284c15.003751 0.012042 27.286116-12.342572 27.286116-27.430614zM360.246569 550.611178c0 15.088042 12.282365 27.430614 27.286116 27.430615h273.956937c10.464093 0 19.555451-5.936476 24.56473-15.076001 1.830313-4.118205 2.721387-8.236409 2.721386-12.354614 0-5.936476-1.818272-11.439457-5.454815-16.460776l-56.980538-78.631217c-9.1034-12.342572-25.925422-14.630464-38.207787-5.936476-12.282365 9.151566-14.558214 26.069921-5.912393 38.412493l25.154764 35.185362H387.532685c-15.003751-0.012042-27.286116 12.342572-27.286116 27.430614z" p-id="6292"></path></svg>