<?xml version="1.0" standalone="no"?><!DOCTYPE svg PUBLIC "-//W3C//DTD SVG 1.1//EN" "http://www.w3.org/Graphics/SVG/1.1/DTD/svg11.dtd"><svg t="1706274946276" class="icon" viewBox="0 0 1024 1024" version="1.1" xmlns="http://www.w3.org/2000/svg" p-id="4297" xmlns:xlink="http://www.w3.org/1999/xlink" width="200" height="200"><path d="M283.613867 341.333333l66.491733 66.628267-166.2976 166.058667a188.074667 188.074667 0 0 0 259.208533 272.452266l6.7584-6.485333 166.2976-166.1952 66.491734 66.491733-166.161067 166.2976a282.180267 282.180267 0 0 1-397.448533-1.6384 282.180267 282.180267 0 0 1-1.6384-397.4144L283.648 341.333333z m631.7056-232.7552a282.077867 282.077867 0 0 1 0 398.9504l-166.161067 166.263467L682.666667 607.300267l166.2976-166.263467a188.177067 188.177067 0 0 0-259.208534-272.5888l-6.7584 6.485333-166.4 166.434134-66.628266-66.491734L516.437333 108.544a282.043733 282.043733 0 0 1 398.916267 0zM150.084267 82.1248l113.322666 113.322667-56.661333 56.661333-113.322667-113.322667 56.661334-56.661333zM373.930667 0v160.290133H293.819733V0h80.110934zM0 293.7856h160.290133v80.110933H0V293.7856z m884.770133 636.8256l-113.322666-113.322667 56.661333-56.661333 113.322667 113.322667-56.661334 56.661333z m138.786134-200.465067h-160.256v-80.145066h160.256v80.145066zM649.693867 1024v-160.290133h80.110933V1024h-80.110933z" fill="currentColor" p-id="4298"></path></svg>