<?xml version="1.0" standalone="no"?><!DOCTYPE svg PUBLIC "-//W3C//DTD SVG 1.1//EN" "http://www.w3.org/Graphics/SVG/1.1/DTD/svg11.dtd"><svg t="1705988229499" class="icon" viewBox="0 0 1024 1024" version="1.1" xmlns="http://www.w3.org/2000/svg" p-id="10939" xmlns:xlink="http://www.w3.org/1999/xlink" width="200" height="200"><path d="M940.5952 308.736a21.1968 21.1968 0 0 0 0-2.7136 0.6656 0.6656 0 0 0 0-0.4608 28.9792 28.9792 0 0 0-1.0752-5.12 43.9296 43.9296 0 0 0-1.8432-5.12 26.368 26.368 0 0 0-1.1776-2.5088l-1.3312-2.4064v-0.3072l-1.4336-2.048-1.6384-2.048s0-0.3072-0.4608-0.4608a13.9776 13.9776 0 0 0-1.7408-1.8432L659.0976 12.5952c-0.6656-0.6656-1.3312-1.1776-1.9456-1.7408s-0.3072 0-0.4608-0.4608-1.3312-1.0752-2.0992-1.6384a23.5008 23.5008 0 0 0-2.0992-1.4336h-0.3072l-2.4064-1.4336a26.368 26.368 0 0 0-2.5088-1.1776 31.0272 31.0272 0 0 0-5.12-1.8432 42.1376 42.1376 0 0 0-5.12-1.0752 0.6656 0.6656 0 0 1-0.4608 0 32.768 32.768 0 0 0-4.7104-0.3072H143.2576a39.2704 39.2704 0 0 0-39.2704 39.2704v898.56a39.2704 39.2704 0 0 0 39.2704 39.2704H901.12a39.2704 39.2704 0 0 0 39.2704-39.2704V308.736zM669.696 134.2464l136.8576 137.0624H669.696zM180.992 898.56V78.592h410.1632v232.1408a39.2704 39.2704 0 0 0 39.2704 39.2704h231.5776v548.6592h-680.96z" fill="currentColor" p-id="10940"></path><path d="M376.1152 589.312l65.1776-71.68a39.3216 39.3216 0 1 0-58.2656-52.8384l-88.1664 97.28a39.2192 39.2192 0 0 0-0.9728 51.6096l88.2688 105.3184a39.2704 39.2704 0 1 0 60.2624-50.432z m283.9552-124.6208a39.3216 39.3216 0 1 0-58.2656 52.8384l65.1776 71.68-66.2528 79.3088a39.168 39.168 0 0 0 5.12 55.3472 38.656 38.656 0 0 0 25.1904 9.1648 39.1168 39.1168 0 0 0 30.1056-14.08l88.2688-105.3184a39.2192 39.2192 0 0 0-0.9728-51.6096z" fill="currentColor" p-id="10941"></path></svg>