<?xml version="1.0" standalone="no"?><!DOCTYPE svg PUBLIC "-//W3C//DTD SVG 1.1//EN" "http://www.w3.org/Graphics/SVG/1.1/DTD/svg11.dtd"><svg t="1705411652341" class="icon" viewBox="0 0 1024 1024" version="1.1" xmlns="http://www.w3.org/2000/svg" p-id="9844" xmlns:xlink="http://www.w3.org/1999/xlink" width="200" height="200"><path d="M431.7184 1024c-10.6496 0-24.9856-2.94912-32.9728-8.192-21.2992-13.02528-37.2736-41.08288-31.9488-80.40448 10.73152-75.9808 61.52192-207.74912 82.82112-273.32608l-202.38336 7.53664c-8.02816 0-59.14624-9.0112-77.74208-43.008-10.73152-23.59296-6.79936-66.19136 17.2032-100.31104 37.31456-49.84832 367.12448-454.28736 383.13984-472.6784 8.02816-7.86432 83.68128-78.47936 145.16224-44.35968 18.71872 10.52672 80.2816 34.11968-58.5728 340.86912h237.32224c2.70336 0 35.34848 11.75552 45.91616 43.2128 8.02816 26.29632-4.58752 57.22112-28.59008 88.6784-53.37088 70.77888-383.46752 499.9168-405.74976 516.01408l-7.41376 6.38976-5.85728 4.42368c-8.192 5.20192-33.71008 15.1552-60.29312 15.1552z m98.7136-424.7552l-13.312 36.70016c0 2.6624-74.79296 212.33664-88.064 306.74944-2.74432 23.59296 0 31.45728 0 31.45728 2.70336 0 15.9744-2.6624 26.70592-10.52672 34.77504-44.52352 344.4736-445.80864 395.10016-513.92512 18.71872-26.2144 15.9744-36.6592 15.9744-39.3216-2.6624-2.6624-5.24288-7.86432-7.9872-7.86432H626.688c-24.00256 0-37.31456-10.52672-42.76224-18.39104-7.9872-13.06624-5.28384-26.25536 0-36.6592 53.32992-117.9648 104.12032-259.56352 98.79552-293.6832-18.71872-2.6624-48.00512 23.59296-61.31712 41.984-2.70336 2.6624-344.4736 424.87808-381.78816 474.60352-13.312 20.8896-16.01536 31.45728-13.312 31.45728 0 2.6624 10.73152 7.86432 18.75968 7.86432l285.40928-10.40384z" fill="currentColor" p-id="9845"></path></svg>