<?xml version="1.0" standalone="no"?><!DOCTYPE svg PUBLIC "-//W3C//DTD SVG 1.1//EN" "http://www.w3.org/Graphics/SVG/1.1/DTD/svg11.dtd"><svg t="1705988364122" class="icon" viewBox="0 0 1024 1024" version="1.1" xmlns="http://www.w3.org/2000/svg" p-id="13032" xmlns:xlink="http://www.w3.org/1999/xlink" width="200" height="200"><path d="M862.144 992h-665.6c-64 0-115.2-51.2-115.2-115.2V147.2c0-64 51.2-115.2 115.2-115.2h672c64 0 115.2 51.2 115.2 115.2v736c-6.4 57.6-57.6 108.8-121.6 108.8zM196.544 128c-6.4 0-12.8 6.4-12.8 12.8v736c0 6.4 6.4 12.8 12.8 12.8h672c6.4 0 12.8-6.4 12.8-12.8V147.2c0-6.4-6.4-12.8-12.8-12.8h-672z" p-id="13033"></path><path d="M727.744 838.4h-396.8c-25.6 0-51.2-19.2-51.2-51.2s19.2-51.2 51.2-51.2h396.8c25.6 0 51.2 19.2 51.2 51.2s-25.6 51.2-51.2 51.2zM586.944 665.6l198.4-435.2h-128l-128 332.8-128-332.8h-128l198.4 435.2z" p-id="13034"></path></svg>