<?xml version="1.0" standalone="no"?><!DOCTYPE svg PUBLIC "-//W3C//DTD SVG 1.1//EN" "http://www.w3.org/Graphics/SVG/1.1/DTD/svg11.dtd"><svg t="1705467991049" class="icon" viewBox="0 0 1024 1024" version="1.1" xmlns="http://www.w3.org/2000/svg" p-id="7331" xmlns:xlink="http://www.w3.org/1999/xlink" width="200" height="200"><path d="M213.333333 53.333333h597.333334A160.170667 160.170667 0 0 1 970.666667 213.333333v597.333334A160.170667 160.170667 0 0 1 810.666667 970.666667H213.333333A160.170667 160.170667 0 0 1 53.333333 810.666667V213.333333A160.170667 160.170667 0 0 1 213.333333 53.333333z m597.333334 853.333334A96.128 96.128 0 0 0 906.666667 810.666667V213.333333A96.128 96.128 0 0 0 810.666667 117.333333H213.333333A96.128 96.128 0 0 0 117.333333 213.333333v597.333334A96.128 96.128 0 0 0 213.333333 906.666667z" p-id="7332" fill="currentColor"></path><path d="M648.96 752.682667a32 32 0 0 1-29.482667-19.584l-102.101333-242.773334-102.101333 242.773334a32 32 0 0 1-60.714667-5.290667L266.837333 342.698667a32 32 0 0 1 62.421334-14.208l65.621333 288.085333 92.970667-221.269333a32 32 0 0 1 59.008 0l93.013333 221.141333 65.621333-288.085333a32 32 0 0 1 62.421334 14.208l-87.722667 385.109333a32 32 0 0 1-28.416 24.789333z" p-id="7333" fill="currentColor"></path></svg>